<svg xmlns="http://www.w3.org/2000/svg" xmlns:xlink="http://www.w3.org/1999/xlink" width="88" height="88" viewBox="0 0 88 88">
  <defs>
    <filter id="사각형_43406" x="19" y="9" width="50" height="70" filterUnits="userSpaceOnUse">
      <feOffset input="SourceAlpha"/>
      <feGaussianBlur stdDeviation="3" result="blur"/>
      <feFlood flood-opacity="0.102"/>
      <feComposite operator="in" in2="blur"/>
      <feComposite in="SourceGraphic"/>
    </filter>
  </defs>
  <g id="그룹_32220" data-name="그룹 32220" transform="translate(-1425 -362)">
    <g id="그룹_31976" data-name="그룹 31976">
      <g id="그룹_32219" data-name="그룹 32219">
        <rect id="사각형_43405" data-name="사각형 43405" width="88" height="88" rx="44" transform="translate(1425 362)" fill="#f5f5f5"/>
        <g transform="matrix(1, 0, 0, 1, 1425, 362)" filter="url(#사각형_43406)">
          <g id="사각형_43406-2" data-name="사각형 43406" transform="translate(28 18)" fill="#fff" stroke="#6f6f6f" stroke-width="1">
            <rect width="32" height="52" rx="6" stroke="none"/>
            <rect x="0.5" y="0.5" width="31" height="51" rx="5.5" fill="none"/>
          </g>
        </g>
      </g>
      <g id="사각형_43407" data-name="사각형 43407" transform="translate(1453 380)" fill="#6f6f6f" stroke="#6f6f6f" stroke-width="1">
        <path d="M6,0H26a6,6,0,0,1,6,6V7a0,0,0,0,1,0,0H0A0,0,0,0,1,0,7V6A6,6,0,0,1,6,0Z" stroke="none"/>
        <path d="M6,.5H26A5.5,5.5,0,0,1,31.5,6v.5a0,0,0,0,1,0,0H.5a0,0,0,0,1,0,0V6A5.5,5.5,0,0,1,6,.5Z" fill="none"/>
      </g>
      <g id="사각형_43408" data-name="사각형 43408" transform="translate(1453 426)" fill="#6f6f6f" stroke="#6f6f6f" stroke-width="1">
        <path d="M0,0H32a0,0,0,0,1,0,0V0a6,6,0,0,1-6,6H6A6,6,0,0,1,0,0V0A0,0,0,0,1,0,0Z" stroke="none"/>
        <path d="M.5.5h31a0,0,0,0,1,0,0v0a5,5,0,0,1-5,5H5.5a5,5,0,0,1-5-5v0A0,0,0,0,1,.5.5Z" fill="none"/>
      </g>
      <path id="패스_10372" data-name="패스 10372" d="M0,0H6.9" transform="translate(1465.982 383.56)" fill="none" stroke="#fff" stroke-linecap="round" stroke-width="1"/>
    </g>
  </g>
</svg>
