<svg xmlns="http://www.w3.org/2000/svg" xmlns:xlink="http://www.w3.org/1999/xlink" width="88" height="88" viewBox="0 0 88 88">
  <defs>
    <filter id="사각형_43406" x="9.001" y="19.001" width="70" height="50" filterUnits="userSpaceOnUse">
      <feOffset input="SourceAlpha"/>
      <feGaussianBlur stdDeviation="3" result="blur"/>
      <feFlood flood-opacity="0.102"/>
      <feComposite operator="in" in2="blur"/>
      <feComposite in="SourceGraphic"/>
    </filter>
  </defs>
  <g id="그룹_32223" data-name="그룹 32223" transform="translate(-1044 -658)">
    <rect id="사각형_43405" data-name="사각형 43405" width="88" height="88" rx="6" transform="translate(1044 658)" fill="#f7f1ff"/>
    <g id="그룹_28498" data-name="그룹 28498" transform="translate(1062.467 718.25) rotate(-90)">
      <g transform="matrix(0, 1, -1, 0, 60.25, -18.47)" filter="url(#사각형_43406)">
        <g id="사각형_43406-2" data-name="사각형 43406" transform="translate(18 60) rotate(-90)" fill="#f7f1ff" stroke="#9747ff" stroke-width="1">
          <rect width="32" height="52" rx="6" stroke="none"/>
          <rect x="0.5" y="0.5" width="31" height="51" rx="5.5" fill="none"/>
        </g>
      </g>
      <g id="패스_10371" data-name="패스 10371" transform="translate(-0.274 51.533) rotate(-90)" fill="#f7f1ff">
        <path d="M 26 22.8123722076416 L 0.5 6.724266052246094 L 0.5 6.000002384185791 C 0.5 2.967292308807373 2.967289924621582 0.5000022053718567 6 0.5000022053718567 L 46 0.5000022053718567 C 49.03271102905273 0.5000022053718567 51.5 2.967292308807373 51.5 6.000002384185791 L 51.5 6.724266052246094 L 26 22.8123722076416 Z" stroke="none"/>
        <path d="M 6 1.000001907348633 C 3.242988586425781 1.000001907348633 1 3.242992401123047 1 6.000001907348633 L 1 6.448513031005859 L 26 22.22116661071777 L 51 6.448513031005859 L 51 6.000001907348633 C 51 3.242992401123047 48.75701141357422 1.000001907348633 46 1.000001907348633 L 6 1.000001907348633 M 6 1.9073486328125e-06 L 46 1.9073486328125e-06 C 49.3137092590332 1.9073486328125e-06 52 2.68629264831543 52 6.000001907348633 L 52 7.000001907348633 L 26 23.40356254577637 L 0 7.000001907348633 L 0 6.000001907348633 C 0 2.68629264831543 2.686290740966797 1.9073486328125e-06 6 1.9073486328125e-06 Z" stroke="none" fill="#9747ff"/>
      </g>
      <g id="패스_10370" data-name="패스 10370" transform="translate(32.249 -0.465) rotate(90)" fill="#9747ff">
        <path d="M 26 24.79098129272461 L 0.5 6.741336345672607 L 0.5 6.000002384185791 C 0.5 2.967292308807373 2.967289924621582 0.5000022053718567 6 0.5000022053718567 L 46 0.5000022053718567 C 49.03271102905273 0.5000022053718567 51.5 2.967292308807373 51.5 6.000002384185791 L 51.5 6.741336345672607 L 26 24.79098129272461 Z" stroke="none"/>
        <path d="M 6 1.000001907348633 C 3.242988586425781 1.000001907348633 1 3.242992401123047 1 6.000001907348633 L 1 6.482669830322266 L 26 24.17840194702148 L 51 6.482669830322266 L 51 6.000001907348633 C 51 3.242992401123047 48.75701141357422 1.000001907348633 46 1.000001907348633 L 6 1.000001907348633 M 6 1.9073486328125e-06 L 46 1.9073486328125e-06 C 49.3137092590332 1.9073486328125e-06 52 2.68629264831543 52 6.000001907348633 L 52 7.000001907348633 L 26 25.40356254577637 L 0 7.000001907348633 L 0 6.000001907348633 C 0 2.68629264831543 2.686290740966797 1.9073486328125e-06 6 1.9073486328125e-06 Z" stroke="none" fill="#9747ff"/>
      </g>
    </g>
  </g>
</svg>
