<svg xmlns="http://www.w3.org/2000/svg" xmlns:xlink="http://www.w3.org/1999/xlink" width="100" height="100" viewBox="0 0 100 100">
  <defs>
    <filter id="사각형_2543" x="0" y="0" width="100" height="100" filterUnits="userSpaceOnUse">
      <feOffset dy="3" input="SourceAlpha"/>
      <feGaussianBlur stdDeviation="6" result="blur"/>
      <feFlood flood-opacity="0.161"/>
      <feComposite operator="in" in2="blur"/>
      <feComposite in="SourceGraphic"/>
    </filter>
  </defs>
  <g id="그룹_32221" data-name="그룹 32221" transform="translate(9674 22004)">
    <g id="그룹_31957" data-name="그룹 31957" transform="translate(-10881.08 -22690.127)">
      <g transform="matrix(1, 0, 0, 1, 1207.08, 686.13)" filter="url(#사각형_2543)">
        <rect id="사각형_2543-2" data-name="사각형 2543" width="64" height="64" rx="6" transform="translate(18 15)" fill="#fff"/>
      </g>
    </g>
    <g id="그룹_4990" data-name="그룹 4990" transform="translate(-9650.898 -21984.223)">
      <path id="패스_10290" data-name="패스 10290" d="M35.574,21.682a18.537,18.537,0,0,0-.3-3.318H20v6.275h8.731a7.468,7.468,0,0,1-3.237,4.9V33.6h5.242a15.814,15.814,0,0,0,4.838-11.922" transform="translate(7.223 5.91)" fill="#4285f4" fill-rule="evenodd"/>
      <path id="패스_10291" data-name="패스 10291" d="M26.455,34.85A15.49,15.49,0,0,0,37.19,30.921l-5.242-4.072A9.788,9.788,0,0,1,17.377,21.71h-5.42v4.2a16.219,16.219,0,0,0,14.5,8.937" transform="translate(0.768 8.595)" fill="#34a853" fill-rule="evenodd"/>
      <path id="패스_10292" data-name="패스 10292" d="M18.145,26.326a9.6,9.6,0,0,1,0-6.165v-4.2h-5.42a16.249,16.249,0,0,0,0,14.572Z" transform="translate(0 3.979)" fill="#fbbc05" fill-rule="evenodd"/>
      <path id="패스_10293" data-name="패스 10293" d="M26.455,17.453a8.759,8.759,0,0,1,6.2,2.426l4.654-4.652A15.588,15.588,0,0,0,26.455,11a16.217,16.217,0,0,0-14.5,8.939l5.42,4.2a9.669,9.669,0,0,1,9.077-6.687" transform="translate(0.768 0)" fill="#ea4335" fill-rule="evenodd"/>
    </g>
  </g>
</svg>
