<svg xmlns="http://www.w3.org/2000/svg" xmlns:xlink="http://www.w3.org/1999/xlink" width="88" height="88" viewBox="0 0 88 88">
  <defs>
    <filter id="사각형_43406" x="18.999" y="9" width="50" height="70" filterUnits="userSpaceOnUse">
      <feOffset input="SourceAlpha"/>
      <feGaussianBlur stdDeviation="3" result="blur"/>
      <feFlood flood-opacity="0.102"/>
      <feComposite operator="in" in2="blur"/>
      <feComposite in="SourceGraphic"/>
    </filter>
  </defs>
  <g id="그룹_32222" data-name="그룹 32222" transform="translate(-916 -544)">
    <rect id="사각형_43405" data-name="사각형 43405" width="88" height="88" rx="6" transform="translate(916 544)" fill="#f7f1ff"/>
    <g id="그룹_28312" data-name="그룹 28312" transform="translate(943.75 562.465)">
      <g transform="matrix(1, 0, 0, 1, -27.75, -18.46)" filter="url(#사각형_43406)">
        <g id="사각형_43406-2" data-name="사각형 43406" transform="translate(28 18)" fill="#fff" stroke="#9747ff" stroke-width="1">
          <rect width="32" height="52" rx="6" stroke="none"/>
          <rect x="0.5" y="0.5" width="31" height="51" rx="5.5" fill="none"/>
        </g>
      </g>
      <g id="사각형_43407" data-name="사각형 43407" transform="translate(0.249 -0.465)" fill="#9747ff" stroke="#9747ff" stroke-width="1">
        <path d="M6,0H26a6,6,0,0,1,6,6V7a0,0,0,0,1,0,0H0A0,0,0,0,1,0,7V6A6,6,0,0,1,6,0Z" stroke="none"/>
        <path d="M6,.5H26A5.5,5.5,0,0,1,31.5,6v.5a0,0,0,0,1,0,0H.5a0,0,0,0,1,0,0V6A5.5,5.5,0,0,1,6,.5Z" fill="none"/>
      </g>
      <g id="사각형_43408" data-name="사각형 43408" transform="translate(0.249 45.535)" fill="#9747ff" stroke="#9747ff" stroke-width="1">
        <path d="M0,0H32a0,0,0,0,1,0,0V0a6,6,0,0,1-6,6H6A6,6,0,0,1,0,0V0A0,0,0,0,1,0,0Z" stroke="none"/>
        <path d="M.5.5h31a0,0,0,0,1,0,0v0a5,5,0,0,1-5,5H5.5a5,5,0,0,1-5-5v0A0,0,0,0,1,.5.5Z" fill="none"/>
      </g>
      <path id="패스_10372" data-name="패스 10372" d="M0,0H6.9" transform="translate(13.233 3.095)" fill="none" stroke="#fff" stroke-linecap="round" stroke-width="1"/>
    </g>
  </g>
</svg>
