<svg xmlns="http://www.w3.org/2000/svg" xmlns:xlink="http://www.w3.org/1999/xlink" width="100" height="100" viewBox="0 0 100 100">
  <defs>
    <filter id="패스_21386" x="0" y="0" width="100" height="100" filterUnits="userSpaceOnUse">
      <feOffset dy="3" input="SourceAlpha"/>
      <feGaussianBlur stdDeviation="6" result="blur"/>
      <feFlood flood-opacity="0.161"/>
      <feComposite operator="in" in2="blur"/>
      <feComposite in="SourceGraphic"/>
    </filter>
  </defs>
  <g id="그룹_32219" data-name="그룹 32219" transform="translate(-1039.084 -686.127)">
    <g transform="matrix(1, 0, 0, 1, 1039.08, 686.13)" filter="url(#패스_21386)">
      <path id="패스_21386-2" data-name="패스 21386" d="M6,0H58a6,6,0,0,1,6,6V58a6,6,0,0,1-6,6H6a6,6,0,0,1-6-6V6A6,6,0,0,1,6,0Z" transform="translate(18 15)" fill="#2eb34a"/>
    </g>
    <path id="패스_10289" data-name="패스 10289" d="M29.362,25.726,20.053,12.4H12.335V37.3H20.42V23.974L29.729,37.3h7.717V12.4H29.362Z" transform="translate(1064.783 708.869)" fill="#fff"/>
  </g>
</svg>
